<svg xmlns="http://www.w3.org/2000/svg" width="480" height="280" viewBox="0 0 480 280" role="img"><line x1="25.44" y1="259" x2="468" y2="259" stroke="rgba(132,150,165,0.18)" stroke-width="1"/><line x1="25.44" y1="175.33" x2="468" y2="175.33" stroke="rgba(132,150,165,0.18)" stroke-width="1"/><line x1="25.44" y1="91.67" x2="468" y2="91.67" stroke="rgba(132,150,165,0.18)" stroke-width="1"/><line x1="25.44" y1="8" x2="468" y2="8" stroke="rgba(132,150,165,0.18)" stroke-width="1"/><line x1="25.44" y1="8" x2="25.44" y2="259" stroke="#8496a5" stroke-width="1"/><line x1="25.44" y1="259" x2="468" y2="259" stroke="#8496a5" stroke-width="1"/><rect x="39.27" y="158.6" width="82.98" height="100.4" fill="#4f7df3"/><rect x="39.27" y="91.67" width="82.98" height="66.93" fill="#f97362"/><rect x="149.91" y="183.7" width="82.98" height="75.3" fill="#4f7df3"/><rect x="149.91" y="125.13" width="82.98" height="58.57" fill="#f97362"/><rect x="260.55" y="125.13" width="82.98" height="133.87" fill="#4f7df3"/><rect x="260.55" y="45.65" width="82.98" height="79.48" fill="#f97362"/><rect x="371.19" y="141.87" width="82.98" height="117.13" fill="#4f7df3"/><rect x="371.19" y="58.2" width="82.98" height="83.67" fill="#f97362"/><text x="19.44" y="259" fill="#5a6b7a" font-size="11" font-family="system-ui, sans-serif" text-anchor="end" dominant-baseline="central">0</text><text x="19.44" y="175.33" fill="#5a6b7a" font-size="11" font-family="system-ui, sans-serif" text-anchor="end" dominant-baseline="central">100</text><text x="19.44" y="91.67" fill="#5a6b7a" font-size="11" font-family="system-ui, sans-serif" text-anchor="end" dominant-baseline="central">200</text><text x="19.44" y="8" fill="#5a6b7a" font-size="11" font-family="system-ui, sans-serif" text-anchor="end" dominant-baseline="central">300</text><text x="80.76" y="265" fill="#5a6b7a" font-size="11" font-family="system-ui, sans-serif" text-anchor="middle" dominant-baseline="hanging">Jan</text><text x="191.4" y="265" fill="#5a6b7a" font-size="11" font-family="system-ui, sans-serif" text-anchor="middle" dominant-baseline="hanging">Feb</text><text x="302.04" y="265" fill="#5a6b7a" font-size="11" font-family="system-ui, sans-serif" text-anchor="middle" dominant-baseline="hanging">Mar</text><text x="412.68" y="265" fill="#5a6b7a" font-size="11" font-family="system-ui, sans-serif" text-anchor="middle" dominant-baseline="hanging">Apr</text></svg>